<svg width="839" height="583" viewBox="0 0 839 583" fill="none" xmlns="http://www.w3.org/2000/svg">
<path d="M706.243 294.296C704.593 451.194 574.91 577.102 416.542 575.473C258.174 573.843 131.168 445.294 132.818 288.396C134.469 131.499 264.152 5.59028 422.52 7.21976C580.888 8.84924 707.894 137.399 706.243 294.296Z" stroke="white" stroke-width="5"/>
<path d="M5.83203 105.007L192.615 106.929L192.238 142.757L5.83203 105.007Z" fill="#2C5364"/>
<path d="M1.99985 469.261L189.128 438.34L188.783 471.183L1.99985 469.261Z" fill="#2C5364"/>
<path d="M837.318 113.562L653.547 111.671L620.031 147.159L837.318 113.562Z" fill="#2C5364"/>
<path d="M833.485 477.816L649.715 475.926L616.922 442.742L833.485 477.816Z" fill="#2C5364"/>
<path d="M344.157 108.481L204.665 107.046L200.833 471.3L340.324 472.735L340.53 453.222L341.744 337.766L461.682 473.984L634.651 475.764L463.803 272.343L638.484 111.51L465.514 109.73L343.045 214.18L344.157 108.481Z" fill="url(#paint0_linear_202_65)"/>
<defs>
<linearGradient id="paint0_linear_202_65" x1="421.574" y1="109.278" x2="183.774" y2="439.181" gradientUnits="userSpaceOnUse">
<stop stop-color="#2C5364"/>
<stop offset="0.286458" stop-color="#2C5364"/>
<stop offset="0.468398" stop-color="#2C5364"/>
<stop offset="0.822867" stop-color="#2C5364"/>
</linearGradient>
</defs>
</svg>
